<svg width="56" height="56" viewBox="0 0 56 56" fill="none" xmlns="http://www.w3.org/2000/svg">
<rect width="56" height="56" rx="5" fill="#1C3146"/>
<ellipse cx="18.1372" cy="12.4812" rx="7.9863" ry="8.4812" fill="#DDDDDD"/>
<ellipse cx="18.3071" cy="12.6617" rx="1.35937" ry="1.44361" fill="#1C3146"/>
<ellipse cx="40.5669" cy="15.3684" rx="5.6074" ry="5.95489" fill="#DDDDDD"/>
<ellipse cx="40.7368" cy="15.5489" rx="1.35937" ry="1.44361" fill="#1C3146"/>
<path d="M40.5668 9.77444L19.6665 4.3609L19.8364 6.88722L39.0375 12.1203L40.5668 9.77444Z" fill="#DDDDDD" stroke="#DDDDDD" stroke-width="0.43609"/>
<path d="M34.4496 21.6842H25.4438V48.5714H37.8481V50.3759H40.5668V48.5714C51.4418 48.391 51.9515 35.9398 51.9515 35.9398C52.2347 32.812 51.4078 25.7624 45.8344 22.5865C41.0766 26.7729 36.2621 23.7293 34.4496 21.6842Z" fill="#DDDDDD"/>
<path d="M12.6997 48.391V50.3759H15.4184V48.5714H25.4438M25.4438 48.5714H37.8481V50.3759H40.5668V48.5714C51.4418 48.391 51.9515 35.9398 51.9515 35.9398C52.2347 32.812 51.4078 25.7624 45.8344 22.5865C41.0766 26.7729 36.2621 23.7293 34.4496 21.6842H25.4438V48.5714Z" stroke="#DDDDDD" stroke-width="0.43609" stroke-linecap="round"/>
<path d="M4.03381 34.4962C3.49006 44.6015 9.64126 48.0902 12.6998 48.5714H25.4439V21.6842C23.1216 23.8496 17.0498 26.9534 11.3404 22.0451C8.84824 22.9474 3.89789 26.7007 4.03381 34.4962Z" fill="#DDDDDD" stroke="#DDDDDD" stroke-width="0.43609"/>
<path d="M12.8696 49.8346V48.5714V48.391H15.2485V49.8346H12.8696Z" fill="#DDDDDD" stroke="#DDDDDD" stroke-width="0.43609"/>
<ellipse cx="22.0454" cy="29.2632" rx="1.69921" ry="1.80451" fill="#1C3146"/>
<ellipse cx="33.2603" cy="29.2632" rx="1.69921" ry="1.80451" fill="#1C3146"/>
<path d="M33.4301 27.6391H22.0454V30.8872H33.4301V27.6391Z" fill="#1C3146" stroke="#1C3146" stroke-width="0.43609"/>
<ellipse cx="22.0454" cy="35.3985" rx="1.69921" ry="1.80451" fill="#1C3146"/>
<ellipse cx="33.2603" cy="35.3985" rx="1.69921" ry="1.80451" fill="#1C3146"/>
<path d="M33.4301 33.7744H22.0454V37.0226H33.4301V33.7744Z" fill="#1C3146" stroke="#1C3146" stroke-width="0.43609"/>
<ellipse cx="22.0454" cy="41.5338" rx="1.69921" ry="1.80451" fill="#1C3146"/>
<ellipse cx="33.2603" cy="41.5338" rx="1.69921" ry="1.80451" fill="#1C3146"/>
<path d="M33.4301 39.9098H22.0454V43.1579H33.4301V39.9098Z" fill="#1C3146" stroke="#1C3146" stroke-width="0.43609"/>
<ellipse cx="14.0591" cy="50.376" rx="1.52929" ry="1.62406" fill="#DDDDDD"/>
<ellipse cx="39.2075" cy="50.376" rx="1.52929" ry="1.62406" fill="#DDDDDD"/>
</svg>
