<svg width="116" height="28" viewBox="0 0 116 28" fill="none" xmlns="http://www.w3.org/2000/svg">
<path d="M6.63 3.608H16.966L23.732 27H15.742L14.858 22.512H8.806L7.82 27H0.17L6.63 3.608ZM14.042 18.33L11.832 8.096L9.52 18.33H14.042ZM31.4574 27.272C29.5534 27.272 28.0688 26.66 27.0034 25.436C25.9381 24.212 25.4054 22.546 25.4054 20.438V9.966H32.6134V20.132C32.6134 20.6533 32.7494 21.0613 33.0214 21.356C33.3161 21.628 33.6901 21.764 34.1434 21.764C34.5968 21.764 35.0614 21.628 35.5374 21.356L35.9114 26.082C35.4128 26.4673 34.7554 26.762 33.9394 26.966C33.1461 27.17 32.3188 27.272 31.4574 27.272ZM29.0094 7.416C27.9441 7.416 27.0374 7.08733 26.2894 6.43C25.5641 5.75 25.2014 4.92267 25.2014 3.948C25.2014 2.97333 25.5868 2.15733 26.3574 1.5C27.1281 0.842665 28.0121 0.513999 29.0094 0.513999C30.0521 0.513999 30.9474 0.853999 31.6954 1.534C32.4661 2.214 32.8514 3.01867 32.8514 3.948C32.8514 4.94533 32.4661 5.77267 31.6954 6.43C30.9248 7.08733 30.0294 7.416 29.0094 7.416ZM37.8914 10.204H45.0654V13.672C45.5867 12.3347 46.2894 11.3487 47.1734 10.714C48.0801 10.0567 49.1341 9.728 50.3354 9.728L51.3214 15.27C49.1681 15.27 47.5814 15.508 46.5614 15.984C45.5641 16.4373 45.0654 17.1627 45.0654 18.16V27H37.8914V10.204Z" fill="#38618C"/>
<path d="M53.5752 3.608H60.6472L66.4952 14.964L72.2072 3.608H79.2792V27H72.2072V14.522L67.8892 22.682H64.9992L60.6472 14.522V27H53.5752V3.608ZM91.8537 27.272C89.9723 27.272 88.295 26.898 86.8217 26.15C85.371 25.3793 84.2377 24.3367 83.4217 23.022C82.6057 21.6847 82.1977 20.1773 82.1977 18.5C82.1977 16.7773 82.617 15.2473 83.4557 13.91C84.2943 12.5727 85.4277 11.5413 86.8557 10.816C88.2837 10.0907 89.8703 9.728 91.6157 9.728C93.293 9.728 94.721 10.102 95.8997 10.85C97.101 11.5753 97.9963 12.5727 98.5857 13.842C99.175 15.0887 99.4697 16.494 99.4697 18.058C99.4697 18.466 99.447 18.7607 99.4017 18.942L89.2017 20.268C89.4737 21.0613 89.9157 21.6393 90.5277 22.002C91.1397 22.342 91.9443 22.512 92.9417 22.512C94.483 22.512 96.149 22.1153 97.9397 21.322L98.7897 25.878C96.6817 26.8073 94.3697 27.272 91.8537 27.272ZM94.1997 15.984C93.837 14.556 92.9757 13.842 91.6157 13.842C90.7997 13.842 90.1537 14.148 89.6777 14.76C89.2017 15.372 88.9523 16.1653 88.9297 17.14L94.1997 15.984ZM110.338 27.272C108.525 27.272 106.916 26.9093 105.51 26.184C104.128 25.436 103.04 24.3933 102.246 23.056C101.476 21.7187 101.09 20.2 101.09 18.5C101.09 16.868 101.498 15.3833 102.314 14.046C103.13 12.7087 104.241 11.6547 105.646 10.884C107.052 10.1133 108.616 9.728 110.338 9.728C112.537 9.728 114.271 10.1813 115.54 11.088L114.894 15.61C113.602 15.2247 112.537 15.032 111.698 15.032C110.61 15.032 109.749 15.3493 109.114 15.984C108.48 16.596 108.162 17.4347 108.162 18.5C108.162 19.5653 108.48 20.4153 109.114 21.05C109.749 21.6847 110.588 22.002 111.63 22.002C112.537 22.002 113.602 21.8093 114.826 21.424L115.472 26.184C114.702 26.5693 113.92 26.8413 113.126 27C112.333 27.1813 111.404 27.272 110.338 27.272Z" fill="#DE3C4B"/>
</svg>
