<svg width="13" height="13" viewBox="0 0 13 13" fill="none" xmlns="http://www.w3.org/2000/svg">
<path d="M1.00042 1.00042C1.08002 0.920614 1.17459 0.857297 1.2787 0.814096C1.38281 0.770894 1.49443 0.748657 1.60714 0.748657C1.71986 0.748657 1.83148 0.770894 1.93559 0.814096C2.0397 0.857297 2.13427 0.920614 2.21387 1.00042L6.74888 5.53715L11.2839 1.00042C11.3636 0.920744 11.4582 0.857541 11.5623 0.81442C11.6664 0.7713 11.7779 0.749106 11.8906 0.749106C12.0033 0.749106 12.1149 0.7713 12.219 0.81442C12.3231 0.857541 12.4177 0.920744 12.4973 1.00042C12.577 1.0801 12.6402 1.17469 12.6833 1.27879C12.7265 1.38289 12.7487 1.49447 12.7487 1.60714C12.7487 1.71982 12.7265 1.8314 12.6833 1.9355C12.6402 2.0396 12.577 2.13419 12.4973 2.21387L7.96062 6.74888L12.4973 11.2839C12.577 11.3636 12.6402 11.4582 12.6833 11.5623C12.7265 11.6664 12.7487 11.7779 12.7487 11.8906C12.7487 12.0033 12.7265 12.1149 12.6833 12.219C12.6402 12.3231 12.577 12.4177 12.4973 12.4973C12.4177 12.577 12.3231 12.6402 12.219 12.6833C12.1149 12.7265 12.0033 12.7487 11.8906 12.7487C11.7779 12.7487 11.6664 12.7265 11.5623 12.6833C11.4582 12.6402 11.3636 12.577 11.2839 12.4973L6.74888 7.96062L2.21387 12.4973C2.13419 12.577 2.0396 12.6402 1.9355 12.6833C1.8314 12.7265 1.71982 12.7487 1.60714 12.7487C1.49447 12.7487 1.38289 12.7265 1.27879 12.6833C1.17469 12.6402 1.0801 12.577 1.00042 12.4973C0.920744 12.4177 0.857541 12.3231 0.81442 12.219C0.7713 12.1149 0.749106 12.0033 0.749106 11.8906C0.749106 11.7779 0.7713 11.6664 0.81442 11.5623C0.857541 11.4582 0.920744 11.3636 1.00042 11.2839L5.53715 6.74888L1.00042 2.21387C0.920614 2.13427 0.857297 2.0397 0.814096 1.93559C0.770894 1.83148 0.748657 1.71986 0.748657 1.60714C0.748657 1.49443 0.770894 1.38281 0.814096 1.2787C0.857297 1.17459 0.920614 1.08002 1.00042 1.00042Z" fill="black"/>
</svg>
