<svg width="55" height="45" viewBox="0 0 55 45" fill="none" xmlns="http://www.w3.org/2000/svg">
<path fill-rule="evenodd" clip-rule="evenodd" d="M10.5764 4.37991C10.5764 2.51324 9.06318 1 7.19651 1C5.32983 1 3.81659 2.51324 3.81659 4.37991L3.81659 4.38248V41.5589H3.44105C2.09289 41.5589 1 42.6518 1 44H11.3275V41.5589H10.5764L10.5764 4.37991ZM47.7555 1C45.8888 1 44.3755 2.51324 44.3755 4.37991V41.5589H43.6245V44H53.952C53.952 42.6518 52.8591 41.5589 51.5109 41.5589H51.1354V4.37991C51.1354 2.51324 49.6221 1 47.7555 1ZM12.2664 44L15.4684 40.6201H39.3894L42.6856 44H12.2664ZM11.8908 18.6506H10.7642V25.8799L15.9279 25.1288L14.5197 24.3777H11.8908V18.6506ZM44.2817 18.6506H43.155V24.3777H40.5262L39.1179 25.1288L44.2817 25.8799V18.6506Z" fill="#F5F5F5"/>
<path d="M10.5764 4.37991H9.91825H10.5764ZM3.81659 4.37991H3.15843V4.38016L3.81659 4.37991ZM3.81659 4.38248H4.47476V4.38223L3.81659 4.38248ZM3.81659 41.5589V42.2171H4.47476V41.5589H3.81659ZM1 44H0.341837V44.6581H1V44ZM11.3275 44V44.6581H11.9857V44H11.3275ZM11.3275 41.5589H11.9857V40.9008H11.3275V41.5589ZM10.5764 41.5589H9.91826V42.2171H10.5764V41.5589ZM44.3755 41.5589V42.2171H45.0337V41.5589H44.3755ZM43.6245 41.5589V40.9008H42.9663V41.5589H43.6245ZM43.6245 44H42.9663V44.6581H43.6245V44ZM53.952 44V44.6581H54.6101V44H53.952ZM51.1354 41.5589H50.4772V42.2171H51.1354V41.5589ZM15.4684 40.6201V39.9619H15.1853L14.9906 40.1674L15.4684 40.6201ZM12.2664 44L11.7886 43.5473L10.7362 44.6582H12.2664V44ZM39.3894 40.6201L39.8606 40.1606L39.6669 39.9619H39.3894V40.6201ZM42.6856 44V44.6582H44.2468L43.1568 43.5405L42.6856 44ZM10.7642 18.6506V17.9925H10.106V18.6506H10.7642ZM11.8908 18.6506H12.549V17.9925H11.8908V18.6506ZM10.7642 25.8799H10.106V26.6407L10.8589 26.5312L10.7642 25.8799ZM15.9279 25.1288L16.0227 25.7801L18.0067 25.4915L16.2377 24.5481L15.9279 25.1288ZM14.5197 24.3777L14.8294 23.797L14.6842 23.7196H14.5197V24.3777ZM11.8908 24.3777H11.2327V25.0359H11.8908V24.3777ZM43.155 18.6506V17.9925H42.4969V18.6506H43.155ZM44.2817 18.6506H44.9398V17.9925H44.2817V18.6506ZM43.155 24.3777V25.0359H43.8132V24.3777H43.155ZM40.5262 24.3777V23.7196H40.3617L40.2165 23.797L40.5262 24.3777ZM39.1179 25.1288L38.8082 24.5481L37.0392 25.4915L39.0232 25.7801L39.1179 25.1288ZM44.2817 25.8799L44.1869 26.5312L44.9398 26.6407V25.8799H44.2817ZM7.19651 1.65816C8.69969 1.65816 9.91825 2.87673 9.91825 4.37991H11.2346C11.2346 2.14974 9.42667 0.341837 7.19651 0.341837V1.65816ZM4.47476 4.37991C4.47476 2.87673 5.69332 1.65816 7.19651 1.65816V0.341837C4.96634 0.341837 3.15843 2.14974 3.15843 4.37991H4.47476ZM4.47476 4.38223L4.47476 4.37967L3.15843 4.38016L3.15843 4.38272L4.47476 4.38223ZM4.47476 41.5589V4.38248H3.15843V41.5589H4.47476ZM3.44105 42.2171H3.81659V40.9008H3.44105V42.2171ZM1.65816 44C1.65816 43.0153 2.45639 42.2171 3.44105 42.2171V40.9008C1.7294 40.9008 0.341837 42.2883 0.341837 44H1.65816ZM11.3275 43.3418H1V44.6581H11.3275V43.3418ZM10.6693 41.5589V44H11.9857V41.5589H10.6693ZM10.5764 42.2171H11.3275V40.9008H10.5764V42.2171ZM9.91825 4.37991L9.91826 41.5589H11.2346L11.2346 4.37991H9.91825ZM45.0337 4.37991C45.0337 2.87673 46.2523 1.65816 47.7555 1.65816V0.341837C45.5253 0.341837 43.7174 2.14974 43.7174 4.37991H45.0337ZM45.0337 41.5589V4.37991H43.7174V41.5589H45.0337ZM43.6245 42.2171H44.3755V40.9008H43.6245V42.2171ZM44.2826 44V41.5589H42.9663V44H44.2826ZM53.952 43.3418H43.6245V44.6581H53.952V43.3418ZM51.5109 42.2171C52.4956 42.2171 53.2938 43.0153 53.2938 44H54.6101C54.6101 42.2883 53.2226 40.9008 51.5109 40.9008V42.2171ZM51.1354 42.2171H51.5109V40.9008H51.1354V42.2171ZM50.4772 4.37991V41.5589H51.7935V4.37991H50.4772ZM47.7555 1.65816C49.2586 1.65816 50.4772 2.87673 50.4772 4.37991H51.7935C51.7935 2.14975 49.9856 0.341837 47.7555 0.341837V1.65816ZM14.9906 40.1674L11.7886 43.5473L12.7442 44.4526L15.9462 41.0727L14.9906 40.1674ZM39.3894 39.9619H15.4684V41.2782H39.3894V39.9619ZM43.1568 43.5405L39.8606 40.1606L38.9182 41.0796L42.2144 44.4595L43.1568 43.5405ZM12.2664 44.6582H42.6856V43.3418H12.2664V44.6582ZM10.7642 19.3088H11.8908V17.9925H10.7642V19.3088ZM11.4224 25.8799V18.6506H10.106V25.8799H11.4224ZM15.8332 24.4775L10.6695 25.2286L10.8589 26.5312L16.0227 25.7801L15.8332 24.4775ZM14.2099 24.9585L15.6182 25.7095L16.2377 24.5481L14.8294 23.797L14.2099 24.9585ZM11.8908 25.0359H14.5197V23.7196H11.8908V25.0359ZM11.2327 18.6506V24.3777H12.549V18.6506H11.2327ZM43.155 19.3088H44.2817V17.9925H43.155V19.3088ZM43.8132 24.3777V18.6506H42.4969V24.3777H43.8132ZM40.5262 25.0359H43.155V23.7196H40.5262V25.0359ZM39.4276 25.7095L40.8359 24.9585L40.2165 23.797L38.8082 24.5481L39.4276 25.7095ZM44.3764 25.2286L39.2126 24.4775L39.0232 25.7801L44.1869 26.5312L44.3764 25.2286ZM43.6235 18.6506V25.8799H44.9398V18.6506H43.6235Z" fill="black"/>
</svg>
