<svg width="22" height="22" viewBox="0 0 22 22" fill="none" xmlns="http://www.w3.org/2000/svg">
<path d="M11 11C11.5042 11 11.9359 10.8203 12.2952 10.461C12.654 10.1023 12.8333 9.67083 12.8333 9.16667C12.8333 8.6625 12.654 8.23075 12.2952 7.87142C11.9359 7.5127 11.5042 7.33333 11 7.33333C10.4958 7.33333 10.0644 7.5127 9.70566 7.87142C9.34632 8.23075 9.16666 8.6625 9.16666 9.16667C9.16666 9.67083 9.34632 10.1023 9.70566 10.461C10.0644 10.8203 10.4958 11 11 11ZM11 19.8229C10.8778 19.8229 10.7555 19.8 10.6333 19.7542C10.5111 19.7083 10.4042 19.6472 10.3125 19.5708C8.08193 17.6 6.41666 15.7706 5.31666 14.0828C4.21666 12.3943 3.66666 10.8167 3.66666 9.35C3.66666 7.05833 4.40396 5.23264 5.87857 3.87292C7.35257 2.51319 9.05971 1.83333 11 1.83333C12.9403 1.83333 14.6474 2.51319 16.1214 3.87292C17.596 5.23264 18.3333 7.05833 18.3333 9.35C18.3333 10.8167 17.7833 12.3943 16.6833 14.0828C15.5833 15.7706 13.918 17.6 11.6875 19.5708C11.5958 19.6472 11.4889 19.7083 11.3667 19.7542C11.2444 19.8 11.1222 19.8229 11 19.8229Z" fill="#F5F5F5"/>
</svg>
