<svg width="27" height="27" viewBox="0 0 27 27" fill="none" xmlns="http://www.w3.org/2000/svg">
<path d="M7.66665 0.000244141H18.8667C23.1333 0.000244141 26.6 3.46691 26.6 7.73358V18.9336C26.6 20.9846 25.7852 22.9516 24.3349 24.4019C22.8847 25.8522 20.9177 26.6669 18.8667 26.6669H7.66665C3.39999 26.6669 -0.0666809 23.2002 -0.0666809 18.9336V7.73358C-0.0666809 5.68257 0.748079 3.71557 2.19836 2.26529C3.64864 0.815004 5.61565 0.000244141 7.66665 0.000244141ZM7.39999 2.66691C6.12695 2.66691 4.90605 3.17262 4.00587 4.0728C3.1057 4.97297 2.59999 6.19387 2.59999 7.46691V19.2002C2.59999 21.8536 4.74665 24.0002 7.39999 24.0002H19.1333C20.4064 24.0002 21.6273 23.4945 22.5274 22.5944C23.4276 21.6942 23.9333 20.4733 23.9333 19.2002V7.46691C23.9333 4.81358 21.7867 2.66691 19.1333 2.66691H7.39999ZM20.2667 4.66691C20.7087 4.66691 21.1326 4.84251 21.4452 5.15507C21.7577 5.46763 21.9333 5.89155 21.9333 6.33358C21.9333 6.77561 21.7577 7.19953 21.4452 7.51209C21.1326 7.82465 20.7087 8.00024 20.2667 8.00024C19.8246 8.00024 19.4007 7.82465 19.0881 7.51209C18.7756 7.19953 18.6 6.77561 18.6 6.33358C18.6 5.89155 18.7756 5.46763 19.0881 5.15507C19.4007 4.84251 19.8246 4.66691 20.2667 4.66691ZM13.2667 6.66691C15.0348 6.66691 16.7305 7.36929 17.9807 8.61953C19.2309 9.86977 19.9333 11.5655 19.9333 13.3336C19.9333 15.1017 19.2309 16.7974 17.9807 18.0476C16.7305 19.2979 15.0348 20.0002 13.2667 20.0002C11.4985 20.0002 9.80285 19.2979 8.55261 18.0476C7.30236 16.7974 6.59999 15.1017 6.59999 13.3336C6.59999 11.5655 7.30236 9.86977 8.55261 8.61953C9.80285 7.36929 11.4985 6.66691 13.2667 6.66691ZM13.2667 9.33358C12.2058 9.33358 11.1884 9.755 10.4382 10.5051C9.68808 11.2553 9.26665 12.2727 9.26665 13.3336C9.26665 14.3944 9.68808 15.4119 10.4382 16.162C11.1884 16.9122 12.2058 17.3336 13.2667 17.3336C14.3275 17.3336 15.3449 16.9122 16.0951 16.162C16.8452 15.4119 17.2667 14.3944 17.2667 13.3336C17.2667 12.2727 16.8452 11.2553 16.0951 10.5051C15.3449 9.755 14.3275 9.33358 13.2667 9.33358Z" fill="white"/>
</svg>
