<svg width="28" height="28" viewBox="0 0 28 28" fill="none" xmlns="http://www.w3.org/2000/svg">
<g clip-path="url(#clip0_343_87)">
<path fill-rule="evenodd" clip-rule="evenodd" d="M18.1195 10.7555C18.201 10.8368 18.2656 10.9333 18.3097 11.0396C18.3539 11.1459 18.3766 11.2599 18.3766 11.375C18.3766 11.4901 18.3539 11.604 18.3097 11.7103C18.2656 11.8166 18.201 11.9132 18.1195 11.9945L12.8695 17.2445C12.7882 17.326 12.6917 17.3906 12.5854 17.4347C12.4791 17.4788 12.3651 17.5015 12.25 17.5015C12.1349 17.5015 12.0209 17.4788 11.9146 17.4347C11.8083 17.3906 11.7118 17.326 11.6305 17.2445L9.0055 14.6195C8.92415 14.5381 8.85961 14.4415 8.81558 14.3352C8.77155 14.229 8.74889 14.115 8.74889 14C8.74889 13.8849 8.77155 13.771 8.81558 13.6647C8.85961 13.5584 8.92415 13.4618 9.0055 13.3805C9.08685 13.2991 9.18343 13.2346 9.28973 13.1906C9.39602 13.1465 9.50995 13.1239 9.625 13.1239C9.74005 13.1239 9.85398 13.1465 9.96027 13.1906C10.0666 13.2346 10.1631 13.2991 10.2445 13.3805L12.25 15.3877L16.8805 10.7555C16.9618 10.674 17.0583 10.6093 17.1646 10.5652C17.2709 10.5211 17.3849 10.4984 17.5 10.4984C17.6151 10.4984 17.7291 10.5211 17.8354 10.5652C17.9417 10.6093 18.0382 10.674 18.1195 10.7555Z" fill="black"/>
<path d="M17.9778 4.39775L16.366 2.74575L17.6173 1.52425L18.7058 2.639L20.2633 2.61975C20.9374 2.61177 21.6064 2.73867 22.2308 2.993C22.8553 3.24733 23.4225 3.62394 23.8993 4.1007C24.3761 4.57746 24.7527 5.14473 25.007 5.76915C25.2613 6.39358 25.3882 7.06256 25.3803 7.73675L25.3628 9.29424L26.4758 10.3827C26.9578 10.8538 27.3408 11.4164 27.6024 12.0376C27.8639 12.6588 27.9986 13.326 27.9986 14C27.9986 14.674 27.8639 15.3412 27.6024 15.9624C27.3408 16.5835 26.9578 17.1462 26.4758 17.6172L25.361 18.7057L25.3803 20.2632C25.3882 20.9374 25.2613 21.6064 25.007 22.2308C24.7527 22.8553 24.3761 23.4225 23.8993 23.8993C23.4225 24.376 22.8553 24.7527 22.2308 25.007C21.6064 25.2613 20.9374 25.3882 20.2633 25.3802L18.7058 25.3627L17.6173 26.4757C17.1462 26.9578 16.5836 27.3408 15.9624 27.6024C15.3412 27.8639 14.674 27.9986 14 27.9986C13.326 27.9986 12.6588 27.8639 12.0376 27.6024C11.4164 27.3408 10.8538 26.9578 10.3828 26.4757L9.29425 25.361L7.73675 25.3802C7.06257 25.3882 6.39359 25.2613 5.76916 25.007C5.14473 24.7527 4.57746 24.376 4.10071 23.8993C3.62395 23.4225 3.24734 22.8553 2.99301 22.2308C2.73868 21.6064 2.61177 20.9374 2.61975 20.2632L2.63725 18.7057L1.52425 17.6172C1.0422 17.1462 0.659159 16.5835 0.397643 15.9624C0.136128 15.3412 0.00141144 14.674 0.00141144 14C0.00141144 13.326 0.136128 12.6588 0.397643 12.0376C0.659159 11.4164 1.0422 10.8538 1.52425 10.3827L2.639 9.29424L2.61975 7.73675C2.61177 7.06256 2.73868 6.39358 2.99301 5.76915C3.24734 5.14473 3.62395 4.57746 4.10071 4.1007C4.57746 3.62394 5.14473 3.24733 5.76916 2.993C6.39359 2.73867 7.06257 2.61177 7.73675 2.61975L9.29425 2.63725L10.3828 1.52425C10.8538 1.04219 11.4164 0.659151 12.0376 0.397636C12.6588 0.13612 13.326 0.00140381 14 0.00140381C14.674 0.00140381 15.3412 0.13612 15.9624 0.397636C16.5836 0.659151 17.1462 1.04219 17.6173 1.52425L16.366 2.74575C16.0579 2.43037 15.6899 2.17977 15.2836 2.00867C14.8773 1.83758 14.4409 1.74944 14 1.74944C13.5591 1.74944 13.1227 1.83758 12.7164 2.00867C12.3101 2.17977 11.9421 2.43037 11.634 2.74575L10.024 4.39775L7.714 4.36975C7.27331 4.36482 6.83608 4.44801 6.428 4.61444C6.01992 4.78087 5.64921 5.02718 5.33766 5.33889C5.02611 5.65061 4.77999 6.02145 4.61378 6.42962C4.44756 6.83779 4.3646 7.27506 4.36975 7.71574L4.39775 10.0222L2.74575 11.634C2.43038 11.9421 2.17978 12.3101 2.00868 12.7164C1.83758 13.1227 1.74944 13.5591 1.74944 14C1.74944 14.4409 1.83758 14.8773 2.00868 15.2836C2.17978 15.6899 2.43038 16.0579 2.74575 16.366L4.39775 17.976L4.36975 20.286C4.36483 20.7267 4.44802 21.1639 4.61445 21.572C4.78088 21.9801 5.02719 22.3508 5.3389 22.6623C5.65062 22.9739 6.02145 23.22 6.42962 23.3862C6.83779 23.5524 7.27507 23.6354 7.71575 23.6302L10.0223 23.6022L11.634 25.2542C11.9421 25.5696 12.3101 25.8202 12.7164 25.9913C13.1227 26.1624 13.5591 26.2506 14 26.2506C14.4409 26.2506 14.8773 26.1624 15.2836 25.9913C15.6899 25.8202 16.0579 25.5696 16.366 25.2542L17.976 23.6022L20.286 23.6302C20.7267 23.6352 21.1639 23.552 21.572 23.3855C21.9801 23.2191 22.3508 22.9728 22.6623 22.6611C22.9739 22.3494 23.22 21.9785 23.3862 21.5704C23.5524 21.1622 23.6354 20.7249 23.6303 20.2842L23.6023 17.9777L25.2543 16.366C25.5696 16.0579 25.8202 15.6899 25.9913 15.2836C26.1624 14.8773 26.2506 14.4409 26.2506 14C26.2506 13.5591 26.1624 13.1227 25.9913 12.7164C25.8202 12.3101 25.5696 11.9421 25.2543 11.634L23.6023 10.024L23.6303 7.71399C23.6352 7.27331 23.552 6.83608 23.3856 6.42799C23.2191 6.01991 22.9728 5.6492 22.6611 5.33765C22.3494 5.0261 21.9786 4.77999 21.5704 4.61377C21.1622 4.44755 20.7249 4.36459 20.2843 4.36975L17.9778 4.39775Z" fill="black"/>
</g>
<defs>
<clipPath id="clip0_343_87">
<rect width="28" height="28" fill="white"/>
</clipPath>
</defs>
</svg>
