<svg width="18" height="28" viewBox="0 0 18 28" fill="none" xmlns="http://www.w3.org/2000/svg">
<path fill-rule="evenodd" clip-rule="evenodd" d="M8.99999 27.125C9.24863 27.125 9.48709 27.0262 9.66291 26.8504C9.83872 26.6746 9.93749 26.4361 9.93749 26.1875V4.07559L15.8362 9.97622C16.0123 10.1523 16.251 10.2512 16.5 10.2512C16.7489 10.2512 16.9877 10.1523 17.1637 9.97622C17.3398 9.80018 17.4387 9.56142 17.4387 9.31247C17.4387 9.06351 17.3398 8.82475 17.1637 8.64872L9.66374 1.14872C9.57666 1.06141 9.4732 0.992143 9.35931 0.944881C9.24541 0.897619 9.12331 0.873291 8.99999 0.873291C8.87668 0.873291 8.75458 0.897619 8.64068 0.944881C8.52678 0.992143 8.42333 1.06141 8.33624 1.14872L0.836244 8.64872C0.749079 8.73588 0.679936 8.83936 0.632763 8.95325C0.58559 9.06713 0.56131 9.1892 0.56131 9.31247C0.56131 9.56142 0.660206 9.80018 0.836244 9.97622C1.01228 10.1523 1.25104 10.2512 1.49999 10.2512C1.74895 10.2512 1.98771 10.1523 2.16374 9.97622L8.06249 4.07559V26.1875C8.06249 26.4361 8.16127 26.6746 8.33708 26.8504C8.5129 27.0262 8.75135 27.125 8.99999 27.125Z" fill="white"/>
</svg>
