<svg width="30" height="28" viewBox="0 0 30 28" fill="none" xmlns="http://www.w3.org/2000/svg">
<g clip-path="url(#clip0_340_62)">
<path d="M2.8125 1.75C2.56386 1.75 2.3254 1.84219 2.14959 2.00628C1.97377 2.17038 1.875 2.39294 1.875 2.625V7.875C1.875 8.10706 1.77623 8.32962 1.60041 8.49372C1.4246 8.65781 1.18614 8.75 0.9375 8.75C0.68886 8.75 0.450403 8.65781 0.274587 8.49372C0.0987721 8.32962 0 8.10706 0 7.875V2.625C0 1.92881 0.296316 1.26113 0.823762 0.768845C1.35121 0.276562 2.06658 0 2.8125 0L8.4375 0C8.68614 0 8.9246 0.0921872 9.10041 0.256282C9.27623 0.420376 9.375 0.642936 9.375 0.875C9.375 1.10706 9.27623 1.32962 9.10041 1.49372C8.9246 1.65781 8.68614 1.75 8.4375 1.75H2.8125ZM20.625 0.875C20.625 0.642936 20.7238 0.420376 20.8996 0.256282C21.0754 0.0921872 21.3139 0 21.5625 0L27.1875 0C27.9334 0 28.6488 0.276562 29.1762 0.768845C29.7037 1.26113 30 1.92881 30 2.625V7.875C30 8.10706 29.9012 8.32962 29.7254 8.49372C29.5496 8.65781 29.3111 8.75 29.0625 8.75C28.8139 8.75 28.5754 8.65781 28.3996 8.49372C28.2238 8.32962 28.125 8.10706 28.125 7.875V2.625C28.125 2.39294 28.0262 2.17038 27.8504 2.00628C27.6746 1.84219 27.4361 1.75 27.1875 1.75H21.5625C21.3139 1.75 21.0754 1.65781 20.8996 1.49372C20.7238 1.32962 20.625 1.10706 20.625 0.875ZM0.9375 19.25C1.18614 19.25 1.4246 19.3422 1.60041 19.5063C1.77623 19.6704 1.875 19.8929 1.875 20.125V25.375C1.875 25.6071 1.97377 25.8296 2.14959 25.9937C2.3254 26.1578 2.56386 26.25 2.8125 26.25H8.4375C8.68614 26.25 8.9246 26.3422 9.10041 26.5063C9.27623 26.6704 9.375 26.8929 9.375 27.125C9.375 27.3571 9.27623 27.5796 9.10041 27.7437C8.9246 27.9078 8.68614 28 8.4375 28H2.8125C2.06658 28 1.35121 27.7234 0.823762 27.2312C0.296316 26.7389 0 26.0712 0 25.375L0 20.125C0 19.8929 0.0987721 19.6704 0.274587 19.5063C0.450403 19.3422 0.68886 19.25 0.9375 19.25ZM29.0625 19.25C29.3111 19.25 29.5496 19.3422 29.7254 19.5063C29.9012 19.6704 30 19.8929 30 20.125V25.375C30 26.0712 29.7037 26.7389 29.1762 27.2312C28.6488 27.7234 27.9334 28 27.1875 28H21.5625C21.3139 28 21.0754 27.9078 20.8996 27.7437C20.7238 27.5796 20.625 27.3571 20.625 27.125C20.625 26.8929 20.7238 26.6704 20.8996 26.5063C21.0754 26.3422 21.3139 26.25 21.5625 26.25H27.1875C27.4361 26.25 27.6746 26.1578 27.8504 25.9937C28.0262 25.8296 28.125 25.6071 28.125 25.375V20.125C28.125 19.8929 28.2238 19.6704 28.3996 19.5063C28.5754 19.3422 28.8139 19.25 29.0625 19.25ZM5.625 7.875C5.625 7.64294 5.72377 7.42038 5.89959 7.25628C6.0754 7.09219 6.31386 7 6.5625 7C6.81114 7 7.0496 7.09219 7.22541 7.25628C7.40123 7.42038 7.5 7.64294 7.5 7.875V20.125C7.5 20.3571 7.40123 20.5796 7.22541 20.7437C7.0496 20.9078 6.81114 21 6.5625 21C6.31386 21 6.0754 20.9078 5.89959 20.7437C5.72377 20.5796 5.625 20.3571 5.625 20.125V7.875ZM9.375 7.875C9.375 7.64294 9.47377 7.42038 9.64959 7.25628C9.8254 7.09219 10.0639 7 10.3125 7C10.5611 7 10.7996 7.09219 10.9754 7.25628C11.1512 7.42038 11.25 7.64294 11.25 7.875V20.125C11.25 20.3571 11.1512 20.5796 10.9754 20.7437C10.7996 20.9078 10.5611 21 10.3125 21C10.0639 21 9.8254 20.9078 9.64959 20.7437C9.47377 20.5796 9.375 20.3571 9.375 20.125V7.875ZM13.125 7.875C13.125 7.64294 13.2238 7.42038 13.3996 7.25628C13.5754 7.09219 13.8139 7 14.0625 7C14.3111 7 14.5496 7.09219 14.7254 7.25628C14.9012 7.42038 15 7.64294 15 7.875V20.125C15 20.3571 14.9012 20.5796 14.7254 20.7437C14.5496 20.9078 14.3111 21 14.0625 21C13.8139 21 13.5754 20.9078 13.3996 20.7437C13.2238 20.5796 13.125 20.3571 13.125 20.125V7.875ZM16.875 7.875C16.875 7.64294 16.9738 7.42038 17.1496 7.25628C17.3254 7.09219 17.5639 7 17.8125 7H19.6875C19.9361 7 20.1746 7.09219 20.3504 7.25628C20.5262 7.42038 20.625 7.64294 20.625 7.875V20.125C20.625 20.3571 20.5262 20.5796 20.3504 20.7437C20.1746 20.9078 19.9361 21 19.6875 21H17.8125C17.5639 21 17.3254 20.9078 17.1496 20.7437C16.9738 20.5796 16.875 20.3571 16.875 20.125V7.875ZM22.5 7.875C22.5 7.64294 22.5988 7.42038 22.7746 7.25628C22.9504 7.09219 23.1889 7 23.4375 7C23.6861 7 23.9246 7.09219 24.1004 7.25628C24.2762 7.42038 24.375 7.64294 24.375 7.875V20.125C24.375 20.3571 24.2762 20.5796 24.1004 20.7437C23.9246 20.9078 23.6861 21 23.4375 21C23.1889 21 22.9504 20.9078 22.7746 20.7437C22.5988 20.5796 22.5 20.3571 22.5 20.125V7.875Z" fill="black"/>
</g>
<defs>
<clipPath id="clip0_340_62">
<rect width="30" height="28" fill="white"/>
</clipPath>
</defs>
</svg>
